<svg width="9" height="9" viewBox="0 0 9 9" fill="none" xmlns="http://www.w3.org/2000/svg">
<path d="M0.101562 9V0.597656H2.42188C5.38281 0.597656 6.86328 1.96289 6.86328 4.69336C6.86328 5.99023 6.45117 7.0332 5.62695 7.82227C4.80664 8.60742 3.70703 9 2.32812 9H0.101562ZM1.08594 1.48828V8.10938H2.33984C3.44141 8.10938 4.29883 7.81445 4.91211 7.22461C5.52539 6.63477 5.83203 5.79883 5.83203 4.7168C5.83203 2.56445 4.6875 1.48828 2.39844 1.48828H1.08594Z" fill="#AE8787"/>
<path d="M8.41797 9H7.43359V5.16797H3.08594V9H2.10156V0.597656H3.08594V4.2832H7.43359V0.597656H8.41797V9Z" fill="#AE8787"/>
</svg>
