<svg width="48" height="48" viewBox="0 0 48 48" fill="none" xmlns="http://www.w3.org/2000/svg">
<rect width="48" height="48" fill="url(#paint0_linear_23_13)"/>
<path d="M18.168 25.04H15.256V27.904H13.912V25.04H11V23.776H13.912V20.896H15.256V23.776H18.168V25.04Z" fill="#EEFBFB"/>
<path d="M23.984 23.504C25.0827 23.6107 25.92 23.952 26.496 24.528C27.072 25.0933 27.36 25.8187 27.36 26.704C27.36 27.344 27.2 27.9253 26.88 28.448C26.56 28.96 26.08 29.3707 25.44 29.68C24.8107 29.9787 24.0373 30.128 23.12 30.128C22.32 30.128 21.552 30.0107 20.816 29.776C20.08 29.5307 19.4773 29.1947 19.008 28.768L19.744 27.504C20.128 27.8667 20.6187 28.16 21.216 28.384C21.8133 28.5973 22.448 28.704 23.12 28.704C23.952 28.704 24.5973 28.528 25.056 28.176C25.5253 27.824 25.76 27.3387 25.76 26.72C25.76 26.1013 25.5307 25.6213 25.072 25.28C24.6133 24.9387 23.92 24.768 22.992 24.768H22.096V23.648L24.912 20.192H19.52V18.8H26.912V19.888L23.984 23.504Z" fill="#EEFBFB"/>
<path d="M36.6461 28.608V30H28.5981V28.912L33.1581 24.512C33.7128 23.9787 34.0861 23.52 34.2781 23.136C34.4701 22.7413 34.5661 22.3467 34.5661 21.952C34.5661 21.3653 34.3581 20.912 33.9421 20.592C33.5368 20.2613 32.9501 20.096 32.1821 20.096C30.9448 20.096 29.9901 20.5013 29.3181 21.312L28.2301 20.368C28.6675 19.8347 29.2381 19.4187 29.9421 19.12C30.6568 18.8213 31.4515 18.672 32.3261 18.672C33.4995 18.672 34.4328 18.9547 35.1261 19.52C35.8195 20.0747 36.1661 20.832 36.1661 21.792C36.1661 22.3893 36.0381 22.9547 35.7821 23.488C35.5261 24.0213 35.0408 24.6293 34.3261 25.312L30.9021 28.608H36.6461Z" fill="#EEFBFB"/>
<defs>
<linearGradient id="paint0_linear_23_13" x1="48" y1="-1.2517e-06" x2="-1.60933e-06" y2="54" gradientUnits="userSpaceOnUse">
<stop stop-color="#4DA8DA"/>
<stop offset="1" stop-color="#007CC7"/>
</linearGradient>
</defs>
</svg>
