<svg width="70" height="72" viewBox="0 0 70 72" fill="none" xmlns="http://www.w3.org/2000/svg">
<path d="M67.1254 22.9526C60.8326 7.37186 44.5751 -1.19034 28.6639 1.6342C28.7042 1.7242 28.7496 1.80916 28.787 1.90132C29.1564 2.81284 29.3148 3.75747 29.2946 4.68051C43.0105 2.29876 57.0238 9.21073 63.2993 22.0087L47.1253 28.5441C42.1278 16.9161 35.9913 10.0733 29.8065 6.91466C29.6625 7.95001 29.2917 8.94361 28.7157 9.81336C33.7161 12.5443 39.381 18.413 44.2453 29.7069L23.4237 38.1193C18.9742 26.343 19.0368 17.9925 20.893 12.6501C19.8929 12.3506 18.9698 11.8286 18.1901 11.1194C15.6622 17.5958 15.9243 27.081 20.5445 39.285L4.45544 45.7822C0.205297 32.0699 6.41815 15.1867 18.4608 8.22217C19.8194 9.90336 22.1652 10.578 24.2733 9.72624C26.856 8.68225 28.1059 5.74106 27.0604 3.157C26.0179 0.572929 23.076 -0.675545 20.4912 0.36917C18.4507 1.19357 17.2498 3.2002 17.3463 5.28099C3.02768 13.0533 -3.99516 33.4364 2.34369 49.128C8.73221 64.9384 25.3793 73.5172 41.5115 70.3089C41.2494 69.9172 41.0233 69.4924 40.8441 69.041C40.6173 68.4887 40.4776 67.9264 40.402 67.3634C26.1302 69.9503 11.4912 62.4408 5.53759 48.6968L21.7022 42.1664C26.8113 54.181 34.2712 62.3112 40.5424 65.5324C40.4149 64.402 41.1616 62.9282 41.9003 62.4739C36.9222 59.3736 29.4163 52.2103 24.5858 40.9993L45.4117 32.5861C49.6122 43.7317 49.389 54.2055 48.1218 59.9604C49.1075 59.7955 50.6533 60.3233 51.4064 61.1455C53.3741 54.3927 52.8147 43.2298 48.2939 31.4212L64.5255 24.862C69.6345 38.6838 62.8176 55.4525 51.1976 63.641C49.8224 62.0649 47.553 61.4457 45.5046 62.2752C42.9184 63.3163 41.6692 66.256 42.7139 68.8423C43.7579 71.4271 46.7005 72.6741 49.286 71.6323C51.3675 70.7891 52.5836 68.7083 52.4238 66.5822C65.8258 57.5441 73.4188 38.5232 67.1254 22.9526Z" fill="#EEFBFB"/>
</svg>
