<svg id="visual" viewBox="0 0 1280 128" width="1280" height="128" xmlns="http://www.w3.org/2000/svg" xmlns:xlink="http://www.w3.org/1999/xlink" version="1.1"><path d="M0 68L35.5 61.2C71 54.3 142 40.7 213.2 37.2C284.3 33.7 355.7 40.3 426.8 39C498 37.7 569 28.3 640 28.2C711 28 782 37 853.2 38C924.3 39 995.7 32 1066.8 26.7C1138 21.3 1209 17.7 1244.5 15.8L1280 14L1280 129L1244.5 129C1209 129 1138 129 1066.8 129C995.7 129 924.3 129 853.2 129C782 129 711 129 640 129C569 129 498 129 426.8 129C355.7 129 284.3 129 213.2 129C142 129 71 129 35.5 129L0 129Z" fill="#007cc7"></path><path d="M0 52L35.5 50.2C71 48.3 142 44.7 213.2 45C284.3 45.3 355.7 49.7 426.8 54C498 58.3 569 62.7 640 65.8C711 69 782 71 853.2 69.5C924.3 68 995.7 63 1066.8 66.2C1138 69.3 1209 80.7 1244.5 86.3L1280 92L1280 129L1244.5 129C1209 129 1138 129 1066.8 129C995.7 129 924.3 129 853.2 129C782 129 711 129 640 129C569 129 498 129 426.8 129C355.7 129 284.3 129 213.2 129C142 129 71 129 35.5 129L0 129Z" fill="#1887cc"></path><path d="M0 61L35.5 68.5C71 76 142 91 213.2 97C284.3 103 355.7 100 426.8 100C498 100 569 103 640 96C711 89 782 72 853.2 69.3C924.3 66.7 995.7 78.3 1066.8 79.3C1138 80.3 1209 70.7 1244.5 65.8L1280 61L1280 129L1244.5 129C1209 129 1138 129 1066.8 129C995.7 129 924.3 129 853.2 129C782 129 711 129 640 129C569 129 498 129 426.8 129C355.7 129 284.3 129 213.2 129C142 129 71 129 35.5 129L0 129Z" fill="#2b92d1"></path><path d="M0 81L35.5 81.2C71 81.3 142 81.7 213.2 81C284.3 80.3 355.7 78.7 426.8 83.2C498 87.7 569 98.3 640 101.3C711 104.3 782 99.7 853.2 93.8C924.3 88 995.7 81 1066.8 83.5C1138 86 1209 98 1244.5 104L1280 110L1280 129L1244.5 129C1209 129 1138 129 1066.8 129C995.7 129 924.3 129 853.2 129C782 129 711 129 640 129C569 129 498 129 426.8 129C355.7 129 284.3 129 213.2 129C142 129 71 129 35.5 129L0 129Z" fill="#3c9dd6"></path><path d="M0 117L35.5 116.2C71 115.3 142 113.7 213.2 112.2C284.3 110.7 355.7 109.3 426.8 105.5C498 101.7 569 95.3 640 97.8C711 100.3 782 111.7 853.2 112.3C924.3 113 995.7 103 1066.8 103.5C1138 104 1209 115 1244.5 120.5L1280 126L1280 129L1244.5 129C1209 129 1138 129 1066.8 129C995.7 129 924.3 129 853.2 129C782 129 711 129 640 129C569 129 498 129 426.8 129C355.7 129 284.3 129 213.2 129C142 129 71 129 35.5 129L0 129Z" fill="#4da8da"></path></svg>